<?xml version="1.0" encoding="UTF-8"?>
<svg width="80px" height="64px" viewBox="0 0 80 64" version="1.1" xmlns="http://www.w3.org/2000/svg" xmlns:xlink="http://www.w3.org/1999/xlink">
    <!-- Generator: Sketch 62 (91390) - https://sketch.com -->
    <title>Group 7</title>
    <desc>Created with Sketch.</desc>
    <g id="Page-1" stroke="none" stroke-width="1" fill="none" fill-rule="evenodd">
        <g id="DESKTOP_THESTUDIO" transform="translate(-851.000000, -3024.000000)" fill="#FFFFFF">
            <g id="Services" transform="translate(0.000000, 2652.000000)">
                <g id="Group-7" transform="translate(851.000000, 372.000000)">
                    <path d="M0.5,8.0209 L79.102,8.0209 L79.102,0.4999 L0.5,0.4999 L0.5,8.0209 Z M3.511,12.8599 L76.091,12.8599 L76.091,8.5199 L3.511,8.5199 L3.511,12.8599 Z M46.065,25.0059 L73.59,25.0059 L73.59,13.3599 L46.065,13.3599 L46.065,25.0059 Z M46.065,37.7649 L73.59,37.7649 L73.59,25.5069 L46.065,25.5069 L46.065,37.7649 Z M46.065,50.3189 L73.59,50.3189 L73.59,38.2649 L46.065,38.2649 L46.065,50.3189 Z M46.065,62.6689 L73.59,62.6689 L73.59,50.8189 L46.065,50.8189 L46.065,62.6689 Z M6.011,62.6689 L12.758,62.6689 L12.758,13.3609 L6.011,13.3609 L6.011,62.6689 Z M79.352,-0.0001 L0.25,-0.0001 C0.112,-0.0001 0,0.1119 0,0.2499 L0,8.2709 C0,8.4089 0.112,8.5209 0.25,8.5209 L3.011,8.5209 L3.011,13.1099 C3.011,13.2489 3.123,13.3599 3.261,13.3599 L5.512,13.3599 L5.512,62.9189 C5.512,63.0569 5.624,63.1689 5.762,63.1689 L13.008,63.1689 C13.146,63.1689 13.258,63.0569 13.258,62.9189 L13.258,13.3599 L45.564,13.3599 L45.564,62.9189 C45.564,63.0569 45.676,63.1689 45.814,63.1689 L73.84,63.1689 C73.979,63.1689 74.09,63.0569 74.09,62.9189 L74.09,13.3599 L76.341,13.3599 C76.479,13.3599 76.591,13.2489 76.591,13.1099 L76.591,8.5209 L79.352,8.5209 C79.49,8.5209 79.602,8.4089 79.602,8.2709 L79.602,0.2499 C79.602,0.1119 79.49,-0.0001 79.352,-0.0001 L79.352,-0.0001 Z" id="Fill-1"></path>
                    <path d="M63.6602,20.8676 L64.1602,20.8676 L64.1602,18.9286 C64.1602,18.7896 64.0492,18.6786 63.9102,18.6786 L55.7442,18.6786 L55.7442,19.1786 L63.6602,19.1786 L63.6602,20.8676 Z" id="Fill-3"></path>
                    <path d="M63.6602,33.728 L64.1602,33.728 L64.1602,31.789 C64.1602,31.65 64.0492,31.539 63.9102,31.539 L55.7442,31.539 L55.7442,32.039 L63.6602,32.039 L63.6602,33.728 Z" id="Fill-4"></path>
                    <path d="M63.6602,45.8735 L64.1602,45.8735 L64.1602,43.9345 C64.1602,43.7965 64.0492,43.6845 63.9102,43.6845 L55.7442,43.6845 L55.7442,44.1845 L63.6602,44.1845 L63.6602,45.8735 Z" id="Fill-5"></path>
                    <path d="M63.6602,58.02 L64.1602,58.02 L64.1602,56.081 C64.1602,55.942 64.0492,55.831 63.9102,55.831 L55.7442,55.831 L55.7442,56.331 L63.6602,56.331 L63.6602,58.02 Z" id="Fill-6"></path>
                </g>
            </g>
        </g>
    </g>
</svg>