<?xml version="1.0" encoding="UTF-8"?>
<svg width="76px" height="68px" viewBox="0 0 76 68" version="1.1" xmlns="http://www.w3.org/2000/svg" xmlns:xlink="http://www.w3.org/1999/xlink">
    <!-- Generator: Sketch 62 (91390) - https://sketch.com -->
    <title>Group 6 Copy</title>
    <desc>Created with Sketch.</desc>
    <defs>
        <polygon id="path-1" points="0 0.3051 75.581 0.3051 75.581 68 0 68"></polygon>
    </defs>
    <g id="Page-1" stroke="none" stroke-width="1" fill="none" fill-rule="evenodd">
        <g id="DESKTOP_THESTUDIO" transform="translate(-1172.000000, -3292.000000)">
            <g id="Services" transform="translate(0.000000, 2652.000000)">
                <g id="Group-6-Copy" transform="translate(1172.000000, 639.000000)">
                    <g id="Group-3" transform="translate(0.000000, 0.695300)">
                        <mask id="mask-2" fill="white">
                            <use xlink:href="#path-1"></use>
                        </mask>
                        <g id="Clip-2"></g>
                        <path d="M75.0815,44.5381 L69.9385,44.5381 L69.9385,5.3521 C69.9385,5.2151 69.8275,5.1021 69.6885,5.1021 L5.8925,5.1021 C5.7535,5.1021 5.6425,5.2151 5.6425,5.3521 L5.6425,44.5381 L0.4995,44.5381 L0.4995,4.9071 C0.4995,2.6451 2.3405,0.8051 4.6025,0.8051 L70.9775,0.8051 C73.2395,0.8051 75.0815,2.6451 75.0815,4.9071 L75.0815,44.5381 Z M6.1425,44.5381 L69.4395,44.5381 L69.4395,5.6021 L6.1425,5.6021 L6.1425,44.5381 Z M75.0815,52.6111 C75.0815,54.8731 73.2395,56.7141 70.9775,56.7141 L4.6025,56.7141 C2.3405,56.7141 0.4995,54.8731 0.4995,52.6111 L0.4995,45.0381 L75.0815,45.0381 L75.0815,52.6111 Z M26.2345,62.0091 L49.3475,62.0091 L49.3475,57.2141 L26.2345,57.2141 L26.2345,62.0091 Z M55.2145,62.5091 C57.5585,62.5091 59.4655,64.4161 59.4655,66.7601 L59.4655,67.5001 L16.1155,67.5001 L16.1155,66.7601 C16.1155,64.4161 18.0225,62.5091 20.3675,62.5091 L55.2145,62.5091 Z M70.9775,0.3051 L4.6025,0.3051 C2.0645,0.3051 -0.0005,2.3691 -0.0005,4.9071 L-0.0005,52.6111 C-0.0005,55.1491 2.0645,57.2141 4.6025,57.2141 L25.7345,57.2141 L25.7345,62.0091 L20.3675,62.0091 C17.7475,62.0091 15.6155,64.1401 15.6155,66.7601 L15.6155,67.7501 C15.6155,67.8881 15.7275,68.0001 15.8655,68.0001 L59.7155,68.0001 C59.8525,68.0001 59.9655,67.8881 59.9655,67.7501 L59.9655,66.7601 C59.9655,64.1401 57.8335,62.0091 55.2145,62.0091 L49.8475,62.0091 L49.8475,57.2141 L70.9775,57.2141 C73.5165,57.2141 75.5815,55.1491 75.5815,52.6111 L75.5815,4.9071 C75.5815,2.3691 73.5165,0.3051 70.9775,0.3051 L70.9775,0.3051 Z" id="Fill-1" fill="#FFFFFF" mask="url(#mask-2)"></path>
                    </g>
                    <path d="M37.7905,48.8672 C39.1735,48.8672 40.2985,49.9922 40.2985,51.3752 C40.2985,52.7582 39.1735,53.8832 37.7905,53.8832 C36.4075,53.8832 35.2825,52.7582 35.2825,51.3752 C35.2825,49.9922 36.4075,48.8672 37.7905,48.8672 M37.7905,54.3832 C39.4485,54.3832 40.7985,53.0332 40.7985,51.3752 C40.7985,49.7172 39.4485,48.3672 37.7905,48.3672 C36.1315,48.3672 34.7825,49.7172 34.7825,51.3752 C34.7825,53.0332 36.1315,54.3832 37.7905,54.3832" id="Fill-4" fill="#FFFFFF"></path>
                </g>
            </g>
        </g>
    </g>
</svg>