<?xml version="1.0" encoding="UTF-8"?>
<svg width="74px" height="71px" viewBox="0 0 74 71" version="1.1" xmlns="http://www.w3.org/2000/svg" xmlns:xlink="http://www.w3.org/1999/xlink">
    <!-- Generator: Sketch 62 (91390) - https://sketch.com -->
    <title>Group 7</title>
    <desc>Created with Sketch.</desc>
    <g id="Page-1" stroke="none" stroke-width="1" fill="none" fill-rule="evenodd">
        <g id="DESKTOP_THESTUDIO" transform="translate(-853.000000, -2741.000000)" fill="#FFFFFF">
            <g id="Group-7" transform="translate(853.000000, 2741.000000)">
                <path d="M65.5240847,70.3413253 L30.8060995,70.3413253 L30.8060995,62.4372283 C30.8060995,62.2555987 30.6598928,62.1078909 30.4801091,62.1078909 L7.66077608,62.1078909 C7.48099233,62.1078909 7.33478561,62.2555987 7.33478561,62.4372283 L7.33478561,70.3413253 L0.651980943,70.3413253 L0.651980943,11.7192728 L63.5681419,11.7192728 L63.5681419,62.4372283 C63.5681419,62.4555065 63.5697719,62.4742788 63.5727058,62.493051 C63.5769437,62.5050718 63.5800406,62.5151166 63.5829745,62.5251614 L63.5878643,62.5434396 C63.5899833,62.551179 63.5917762,62.5590831 63.5943842,62.5668226 L63.6574633,62.661013 L63.7583574,62.7347846 L63.8589254,62.7612963 C63.8691941,62.762449 63.8791368,62.7637663 63.8892425,62.765413 C63.8980443,62.764425 63.90652,62.7636016 63.9151588,62.7631076 C63.9283614,62.762449 63.940423,62.762449 63.9518327,62.7608023 C63.9586785,62.7588262 63.9653613,62.7571796 63.9720441,62.7558622 C63.9842688,62.7528982 63.9984493,62.7491108 64.0124669,62.7438414 L64.0220837,62.7389013 C64.042947,62.7291859 64.0584316,62.7219405 64.0726122,62.712225 C64.0965725,62.6932881 64.1087971,62.684396 64.1197178,62.6738572 L64.1360173,62.6544263 C64.1428631,62.6466869 64.1521538,62.6369714 64.1601406,62.6259386 L64.1741582,62.6005796 C64.180841,62.5892175 64.1862199,62.5808194 64.1902947,62.5715979 L64.2023564,62.5361942 C64.2049643,62.5282901 64.2080612,62.520386 64.2100172,62.5121525 L64.2124621,62.4937097 C64.216048,62.4678567 64.2181669,62.4551772 64.2204489,62.4436504 C64.3741534,59.7742063 66.4155057,57.6040377 68.7758397,57.6040377 C71.1560591,57.6040377 73.1617155,59.583026 73.3421512,62.1092083 L73.3432922,62.1248518 L73.3432922,62.1403307 C73.2353893,66.8923396 69.9471235,70.3413253 65.5240847,70.3413253 L65.5240847,70.3413253 Z M7.98676655,70.3413253 L30.1541186,70.3413253 L30.1541186,62.7665657 L7.98676655,62.7665657 L7.98676655,70.3413253 Z M64.2201229,11.3899354 C64.2201229,8.69282703 66.1786736,6.65851008 68.7758397,6.65851008 C71.296887,6.65851008 73.3478561,8.86408247 73.3478561,11.5751877 L73.3478561,59.6390133 L72.768408,58.9151298 C71.7663133,57.6634831 70.3110918,56.9453629 68.7758397,56.9453629 C67.2660148,56.9453629 65.8184541,57.7099196 64.8046238,59.0429127 L64.2201229,59.8114214 L64.2201229,11.3899354 Z M73.9890793,62.276347 L73.9938062,62.2302398 C73.9970661,62.2119615 74,62.1931893 74,62.1737584 L74,11.5753524 C74,8.50115268 71.6562915,6 68.7758397,6 C66.0717487,6 63.8960883,8.00451192 63.6022079,10.7664998 L63.5710758,11.0605981 L0.325990471,11.0605981 C0.146206726,11.0605981 0,11.2083059 0,11.3899354 L0,70.6706626 C0,70.8522922 0.146206726,71 0.325990471,71 L65.5240847,71 C67.8811589,71 70.0339999,70.07555 71.5860406,68.3969174 C73.0552796,66.8081939 73.9085597,64.6345673 73.9890793,62.276347 L73.9890793,62.276347 Z" id="Fill-1"></path>
                <path d="M8.63945578,40.350365 L8.63945578,29.5109489 L19.5102041,29.5109489 C19.686534,29.5109489 19.829932,29.3636314 19.829932,29.1824818 L19.829932,19.6569343 L36.7755102,19.6569343 L36.7755102,28.8540146 L25.9047619,28.8540146 C25.728432,28.8540146 25.585034,29.0013321 25.585034,29.1824818 C25.585034,29.3636314 25.728432,29.5109489 25.9047619,29.5109489 L36.7755102,29.5109489 L36.7755102,40.350365 L8.63945578,40.350365 Z M15.0340136,53.4890511 L28.7823129,53.4890511 L28.7823129,41.0072993 L15.0340136,41.0072993 L15.0340136,53.4890511 Z M8.63945578,28.8540146 L19.1904762,28.8540146 L19.1904762,19.6569343 L8.63945578,19.6569343 L8.63945578,28.8540146 Z M37.414966,32.7956204 L54.3605442,32.7956204 L54.3605442,63.3430657 L47.0068027,63.3430657 L47.0068027,45.9343066 L49.8843537,45.9343066 C50.0606837,45.9343066 50.2040816,45.7869891 50.2040816,45.6058394 C50.2040816,45.4246898 50.0606837,45.2773723 49.8843537,45.2773723 L46.6870748,45.2773723 C46.5107449,45.2773723 46.3673469,45.4246898 46.3673469,45.6058394 L46.3673469,63.3430657 L37.414966,63.3430657 L37.414966,32.7956204 Z M37.414966,32.1386861 L46.3673469,32.1386861 L46.3673469,24.5839416 L37.414966,24.5839416 L37.414966,32.1386861 Z M37.0952381,64 L54.6802721,64 C54.856602,64 55,63.8526825 55,63.6715328 L55,32.4671533 C55,32.2860036 54.856602,32.1386861 54.6802721,32.1386861 L47.0068027,32.1386861 L47.0068027,24.2554745 C47.0068027,24.0743248 46.8634048,23.9270073 46.6870748,23.9270073 L37.414966,23.9270073 L37.414966,19.3284672 C37.414966,19.1473175 37.271568,19 37.0952381,19 L8.31972789,19 C8.14339796,19 8,19.1473175 8,19.3284672 L8,40.6788321 C8,40.8599818 8.14339796,41.0072993 8.31972789,41.0072993 L14.3945578,41.0072993 L14.3945578,53.8175182 C14.3945578,53.9986679 14.5379558,54.1459854 14.7142857,54.1459854 L29.1020408,54.1459854 C29.2783707,54.1459854 29.4217687,53.9986679 29.4217687,53.8175182 L29.4217687,41.0072993 L36.7755102,41.0072993 L36.7755102,63.6715328 C36.7755102,63.8526825 36.9189082,64 37.0952381,64 L37.0952381,64 Z" id="Fill-3"></path>
                <path d="M51.4829932,7.27272727 L48.6054422,7.27272727 L48.6054422,0.727272727 L51.4829932,0.727272727 C53.0696429,0.727272727 54.3605442,2.19545455 54.3605442,4 C54.3605442,5.80454545 53.0696429,7.27272727 51.4829932,7.27272727 L51.4829932,7.27272727 Z M43.8095238,7.27272727 L47.9659864,7.27272727 L47.9659864,0.727272727 L43.8095238,0.727272727 L43.8095238,7.27272727 Z M43.170068,7.27272727 L14.7897415,7.27272727 L9.03463946,4 L14.7897415,0.727272727 L43.170068,0.727272727 L43.170068,7.27272727 Z M51.4829932,0 L14.7142857,0 C14.6650476,0 14.6153299,0.0132727273 14.5707279,0.0385454545 L8.17664966,3.67472727 C8.06778231,3.73672727 8,3.86145455 8,4 C8,4.13854545 8.06762245,4.26327273 8.17664966,4.32527273 L14.5712075,7.96163636 C14.6153299,7.98672727 14.6650476,8 14.7142857,8 L51.4829932,8 C53.4223027,8 55,6.20563636 55,4 C55,1.79436364 53.4223027,0 51.4829932,0 L51.4829932,0 Z" id="Fill-5"></path>
            </g>
        </g>
    </g>
</svg>