<svg width="76" height="76" viewBox="0 0 76 76" fill="none" xmlns="http://www.w3.org/2000/svg">
<path fill-rule="evenodd" clip-rule="evenodd" d="M0.200012 71.449H40.201V3.94897H0.200012V71.449Z" stroke="#303030" stroke-width="0.4" stroke-linecap="round" stroke-linejoin="round"/>
<path fill-rule="evenodd" clip-rule="evenodd" d="M0.200012 3.94895H75.201V0.199951H0.200012V3.94895Z" stroke="#303030" stroke-width="0.4" stroke-linecap="round" stroke-linejoin="round"/>
<path fill-rule="evenodd" clip-rule="evenodd" d="M0.200012 75.196H75.201V71.448H0.200012V75.196Z" stroke="#303030" stroke-width="0.4" stroke-linecap="round" stroke-linejoin="round"/>
<path fill-rule="evenodd" clip-rule="evenodd" d="M40.201 37.699H75.201V20.823H40.201V37.699Z" stroke="#303030" stroke-width="0.4" stroke-linecap="round" stroke-linejoin="round"/>
<path fill-rule="evenodd" clip-rule="evenodd" d="M40.201 37.699H43.95V25.198H40.201V37.699Z" stroke="#303030" stroke-width="0.4" stroke-linecap="round" stroke-linejoin="round"/>
<path fill-rule="evenodd" clip-rule="evenodd" d="M43.95 37.699H47.701V25.198H43.95V37.699Z" stroke="#303030" stroke-width="0.4" stroke-linecap="round" stroke-linejoin="round"/>
<path fill-rule="evenodd" clip-rule="evenodd" d="M47.701 37.699H51.45V25.198H47.701V37.699Z" stroke="#303030" stroke-width="0.4" stroke-linecap="round" stroke-linejoin="round"/>
<path fill-rule="evenodd" clip-rule="evenodd" d="M51.45 37.699H55.201V25.198H51.45V37.699Z" stroke="#303030" stroke-width="0.4" stroke-linecap="round" stroke-linejoin="round"/>
<path fill-rule="evenodd" clip-rule="evenodd" d="M60.2 37.699H55.198V32.698L60.2 37.699Z" stroke="#303030" stroke-width="0.4" stroke-linecap="round" stroke-linejoin="round"/>
<path fill-rule="evenodd" clip-rule="evenodd" d="M71.452 37.699H75.201V25.198H71.452V37.699Z" stroke="#303030" stroke-width="0.4" stroke-linecap="round" stroke-linejoin="round"/>
<path fill-rule="evenodd" clip-rule="evenodd" d="M67.7 37.699H71.449V25.198H67.7V37.699Z" stroke="#303030" stroke-width="0.4" stroke-linecap="round" stroke-linejoin="round"/>
<path fill-rule="evenodd" clip-rule="evenodd" d="M40.201 20.823H75.201V3.94897H40.201V20.823Z" stroke="#303030" stroke-width="0.4" stroke-linecap="round" stroke-linejoin="round"/>
<path fill-rule="evenodd" clip-rule="evenodd" d="M60.2 20.823H75.201V17.075H60.2V20.823Z" stroke="#303030" stroke-width="0.4" stroke-linecap="round" stroke-linejoin="round"/>
<path fill-rule="evenodd" clip-rule="evenodd" d="M60.2 17.075H75.201V13.323H60.2V17.075Z" stroke="#303030" stroke-width="0.4" stroke-linecap="round" stroke-linejoin="round"/>
<path fill-rule="evenodd" clip-rule="evenodd" d="M60.2 13.323H75.201V9.57495H60.2V13.323Z" stroke="#303030" stroke-width="0.4" stroke-linecap="round" stroke-linejoin="round"/>
<path fill-rule="evenodd" clip-rule="evenodd" d="M52.6971 20.823H47.6981L45.2001 8.32397H55.1981L52.6971 20.823Z" stroke="#303030" stroke-width="0.4" stroke-linecap="round" stroke-linejoin="round"/>
<path fill-rule="evenodd" clip-rule="evenodd" d="M32.6983 31.448C31.3173 31.448 30.2003 32.568 30.2003 33.946L30.1973 41.45C30.1973 42.83 31.3173 43.951 32.6983 43.951C31.3173 43.951 30.1973 42.83 30.1973 41.45L30.2003 33.946C30.2003 32.567 31.3163 31.448 32.6983 31.448Z" stroke="#303030" stroke-width="0.4" stroke-linecap="round" stroke-linejoin="round"/>
<mask id="mask0_90_2672" style="mask-type:luminance" maskUnits="userSpaceOnUse" x="0" y="0" width="76" height="76">
<path fill-rule="evenodd" clip-rule="evenodd" d="M0 75.396H75.401V0H0V75.396Z" fill="white"/>
</mask>
<g mask="url(#mask0_90_2672)">
<path fill-rule="evenodd" clip-rule="evenodd" d="M40.201 54.573H57.699V37.699H40.201V54.573Z" stroke="#303030" stroke-width="0.4" stroke-linecap="round" stroke-linejoin="round"/>
<path fill-rule="evenodd" clip-rule="evenodd" d="M40.201 71.448H75.201V54.573H40.201V71.448Z" stroke="#303030" stroke-width="0.4" stroke-linecap="round" stroke-linejoin="round"/>
<path fill-rule="evenodd" clip-rule="evenodd" d="M46.451 46.136H51.45H46.451Z" stroke="#303030" stroke-width="0.4" stroke-linecap="round" stroke-linejoin="round"/>
<path fill-rule="evenodd" clip-rule="evenodd" d="M55.199 63.0105H60.198H55.199Z" stroke="#303030" stroke-width="0.4" stroke-linecap="round" stroke-linejoin="round"/>
<path fill-rule="evenodd" clip-rule="evenodd" d="M57.699 54.573H75.201V37.699H57.699V54.573Z" stroke="#303030" stroke-width="0.4" stroke-linecap="round" stroke-linejoin="round"/>
<path fill-rule="evenodd" clip-rule="evenodd" d="M63.949 46.136H68.948H63.949Z" stroke="#303030" stroke-width="0.4" stroke-linecap="round" stroke-linejoin="round"/>
</g>
</svg>