<?xml version="1.0" encoding="UTF-8"?>
<svg width="57px" height="69px" viewBox="0 0 57 69" version="1.1" xmlns="http://www.w3.org/2000/svg" xmlns:xlink="http://www.w3.org/1999/xlink">
    <!-- Generator: Sketch 62 (91390) - https://sketch.com -->
    <title>Group 17</title>
    <desc>Created with Sketch.</desc>
    <defs>
        <path d="M0.718552632,0.259448276 C0.563526316,0.259448276 0.435657895,0.388034483 0.435657895,0.545068966 L0.435657895,0.545068966 L0.435657895,32.258069 C0.435657895,32.4116897 0.563526316,32.5414138 0.718552632,32.5414138 L0.718552632,32.5414138 L41.9408421,32.5414138 C42.0958684,32.5414138 42.2226053,32.4116897 42.2226053,32.258069 L42.2226053,32.258069 L42.2226053,0.545068966 C42.2226053,0.388034483 42.0958684,0.259448276 41.9408421,0.259448276 L41.9408421,0.259448276 L0.718552632,0.259448276 Z M21.6131579,31.9713103 L41.6590789,31.9713103 L41.6590789,0.828413793 L21.6131579,0.828413793 L21.6131579,31.9713103 Z M1.00257895,31.9713103 L21.0473684,31.9713103 L21.0473684,0.828413793 L1.00257895,0.828413793 L1.00257895,31.9713103 Z" id="path-1"></path>
        <path d="M0.718552632,0.939230769 C0.563526316,0.939230769 0.435657895,1.06730769 0.435657895,1.22653846 L0.435657895,1.22653846 L0.435657895,13.8738462 C0.435657895,14.0330769 0.563526316,14.1634615 0.718552632,14.1634615 L0.718552632,14.1634615 L41.9408421,14.1634615 C42.0958684,14.1634615 42.2226053,14.0330769 42.2226053,13.8738462 L42.2226053,13.8738462 L42.2226053,1.22653846 C42.2226053,1.06730769 42.0958684,0.939230769 41.9408421,0.939230769 L41.9408421,0.939230769 L0.718552632,0.939230769 Z M1.00257895,13.5853846 L41.6568158,13.5853846 L41.6568158,1.515 L1.00257895,1.515 L1.00257895,13.5853846 Z" id="path-3"></path>
        <path d="M0.1476,3.0612 C0.1476,4.584 1.3848,5.8212 2.9076,5.8212 L2.9076,5.8212 C4.4304,5.8212 5.6676,4.584 5.6676,3.0612 L5.6676,3.0612 C5.6676,1.5372 4.4304,0.3012 2.9076,0.3012 L2.9076,0.3012 C1.3848,0.3012 0.1476,1.5372 0.1476,3.0612 L0.1476,3.0612 Z M0.7476,3.0612 C0.7476,1.8696 1.716,0.9 2.9076,0.9 L2.9076,0.9 C4.098,0.9 5.0676,1.8696 5.0676,3.0612 L5.0676,3.0612 C5.0676,4.2516 4.098,5.2212 2.9076,5.2212 L2.9076,5.2212 C1.716,5.2212 0.7476,4.2516 0.7476,3.0612 L0.7476,3.0612 Z" id="path-5"></path>
        <path d="M0.139833333,3.0612 C0.139833333,4.584 1.34266667,5.8212 2.82316667,5.8212 L2.82316667,5.8212 C4.3025,5.8212 5.50766667,4.584 5.50766667,3.0612 L5.50766667,3.0612 C5.50766667,1.5372 4.3025,0.3012 2.82316667,0.3012 L2.82316667,0.3012 C1.34266667,0.3012 0.139833333,1.5372 0.139833333,3.0612 L0.139833333,3.0612 Z M0.723166667,3.0612 C0.723166667,1.8696 1.66583333,0.9 2.82316667,0.9 L2.82316667,0.9 C3.97933333,0.9 4.92433333,1.8696 4.92433333,3.0612 L4.92433333,3.0612 C4.92433333,4.2516 3.97933333,5.2212 2.82316667,5.2212 L2.82316667,5.2212 C1.66583333,5.2212 0.723166667,4.2516 0.723166667,3.0612 L0.723166667,3.0612 Z" id="path-7"></path>
        <path d="M0.285,0 C0.13566,0 0.0114,0.115377049 0,0.259032787 L0,0.259032787 L0,5.23721311 C0.0114,5.38086885 0.13566,5.4962459 0.285,5.4962459 L0.285,5.4962459 L2.90244,5.4962459 L2.90244,68.7138197 C2.90244,68.8710492 3.03126,68.9977377 3.18858,68.9977377 L3.18858,68.9977377 L7.56504,68.9977377 C7.72236,68.9977377 7.85004,68.8710492 7.85004,68.7138197 L7.85004,68.7138197 L7.85004,64.1326721 L48.80682,64.1326721 L48.80682,68.7138197 C48.80682,68.8710492 48.9345,68.9977377 49.09296,68.9977377 L49.09296,68.9977377 L53.46828,68.9977377 C53.62446,68.9977377 53.75328,68.8710492 53.75328,68.7138197 L53.75328,68.7138197 L53.75328,64.1733934 L53.75328,27.4054426 L53.75328,5.4962459 L56.37186,5.4962459 C56.52804,5.4962459 56.65686,5.36955738 56.65686,5.21459016 L56.65686,5.21459016 L56.65686,0.281655738 C56.65686,0.127819672 56.52804,0 56.37186,0 L56.37186,0 L0.285,0 Z M0.56886,4.93067213 L56.088,4.93067213 L56.088,0.56557377 L0.56886,0.56557377 L0.56886,4.93067213 Z M3.47244,5.4962459 L53.18442,5.4962459 L53.18442,27.4054426 L53.18442,27.9710164 L53.18442,68.4321639 L49.37682,68.4321639 L49.37682,63.8510164 C49.37682,63.694918 49.24914,63.5670984 49.09296,63.5670984 L49.09296,63.5670984 L7.56504,63.5670984 C7.40772,63.5670984 7.28118,63.694918 7.28118,63.8510164 L7.28118,63.8510164 L7.28118,68.4321639 L3.47244,68.4321639 L3.47244,5.4962459 Z" id="path-9"></path>
    </defs>
    <g id="Page-1" stroke="none" stroke-width="1" fill="none" fill-rule="evenodd">
        <g id="DESKTOP_THESTUDIO" transform="translate(-1182.000000, -3019.000000)">
            <g id="Services" transform="translate(0.000000, 2652.000000)">
                <g id="Group-17" transform="translate(1182.000000, 367.000000)">
                    <g id="Group-3" transform="translate(7.000000, 27.000000)">
                        <mask id="mask-2" fill="white">
                            <use xlink:href="#path-1"></use>
                        </mask>
                        <g id="Clip-2"></g>
                        <polygon id="Fill-1" fill="#FFFFFF" mask="url(#mask-2)" points="-5.22223684 38.231069 47.8805 38.231069 47.8805 -5.4302069 -5.22223684 -5.4302069"></polygon>
                    </g>
                    <g id="Group-6" transform="translate(7.000000, 9.000000)">
                        <mask id="mask-4" fill="white">
                            <use xlink:href="#path-3"></use>
                        </mask>
                        <g id="Clip-5"></g>
                        <polygon id="Fill-4" fill="#FFFFFF" mask="url(#mask-4)" points="-5.22223684 19.9315385 47.8805 19.9315385 47.8805 -4.83115385 -5.22223684 -4.83115385"></polygon>
                    </g>
                    <polygon id="Fill-7" fill="#FFFFFF" points="25 16.7495 32 16.7495 32 16.2505 25 16.2505"></polygon>
                    <g id="Group-10" transform="translate(19.000000, 42.000000)">
                        <mask id="mask-6" fill="white">
                            <use xlink:href="#path-5"></use>
                        </mask>
                        <g id="Clip-9"></g>
                        <polygon id="Fill-8" fill="#FFFFFF" mask="url(#mask-6)" points="-5.8524 11.82 11.6676 11.82 11.6676 -5.7 -5.8524 -5.7"></polygon>
                    </g>
                    <g id="Group-13" transform="translate(32.000000, 42.000000)">
                        <mask id="mask-8" fill="white">
                            <use xlink:href="#path-7"></use>
                        </mask>
                        <g id="Clip-12"></g>
                        <polygon id="Fill-11" fill="#FFFFFF" mask="url(#mask-8)" points="-5.6935 11.82 11.3398333 11.82 11.3398333 -5.7 -5.6935 -5.7"></polygon>
                    </g>
                    <g id="Group-16">
                        <mask id="mask-10" fill="white">
                            <use xlink:href="#path-9"></use>
                        </mask>
                        <g id="Clip-15"></g>
                        <path d="M53.7453,74.4826721 L95.1501,74.4826721 L95.1501,24.1624426 L53.7453,24.1624426 L53.7453,74.4826721 Z M-5.7,74.6534754 L99.74316,74.6534754 L99.74316,-5.6557377 L-5.7,-5.6557377 L-5.7,74.6534754 Z" id="Fill-14" fill="#FFFFFF" mask="url(#mask-10)"></path>
                    </g>
                </g>
            </g>
        </g>
    </g>
</svg>