<svg width="76" height="68" viewBox="0 0 76 68" fill="none" xmlns="http://www.w3.org/2000/svg">
<mask id="mask0_92_2774" style="mask-type:luminance" maskUnits="userSpaceOnUse" x="0" y="0" width="76" height="68">
<path fill-rule="evenodd" clip-rule="evenodd" d="M0 0H75.581V67.6949H0V0Z" fill="white"/>
</mask>
<g mask="url(#mask0_92_2774)">
<path fill-rule="evenodd" clip-rule="evenodd" d="M75.0815 44.233H69.9385V5.047C69.9385 4.91 69.8275 4.797 69.6885 4.797H5.8925C5.7535 4.797 5.6425 4.91 5.6425 5.047V44.233H0.499496V4.602C0.499496 2.34 2.3405 0.5 4.6025 0.5H70.9775C73.2395 0.5 75.0815 2.34 75.0815 4.602V44.233ZM6.1425 44.233H69.4395V5.297H6.1425V44.233ZM75.0815 52.306C75.0815 54.568 73.2395 56.409 70.9775 56.409H4.6025C2.3405 56.409 0.499496 54.568 0.499496 52.306V44.733H75.0815V52.306ZM26.2345 61.704H49.3475V56.909H26.2345V61.704ZM55.2145 62.204C57.5585 62.204 59.4655 64.111 59.4655 66.455V67.195H16.1155V66.455C16.1155 64.111 18.0225 62.204 20.3675 62.204H55.2145ZM70.9775 0H4.6025C2.0645 0 -0.00050354 2.064 -0.00050354 4.602V52.306C-0.00050354 54.844 2.0645 56.909 4.6025 56.909H25.7345V61.704H20.3675C17.7475 61.704 15.6155 63.835 15.6155 66.455V67.445C15.6155 67.583 15.7275 67.695 15.8655 67.695H59.7155C59.8525 67.695 59.9655 67.583 59.9655 67.445V66.455C59.9655 63.835 57.8335 61.704 55.2145 61.704H49.8475V56.909H70.9775C73.5165 56.909 75.5815 54.844 75.5815 52.306V4.602C75.5815 2.064 73.5165 0 70.9775 0Z" fill="#303030"/>
</g>
<path fill-rule="evenodd" clip-rule="evenodd" d="M37.7902 47.8672C39.1732 47.8672 40.2982 48.9922 40.2982 50.3752C40.2982 51.7582 39.1732 52.8832 37.7902 52.8832C36.4072 52.8832 35.2822 51.7582 35.2822 50.3752C35.2822 48.9922 36.4072 47.8672 37.7902 47.8672ZM37.7902 53.3832C39.4482 53.3832 40.7982 52.0332 40.7982 50.3752C40.7982 48.7172 39.4482 47.3672 37.7902 47.3672C36.1312 47.3672 34.7822 48.7172 34.7822 50.3752C34.7822 52.0332 36.1312 53.3832 37.7902 53.3832Z" fill="#303030"/>
</svg>