<svg xmlns="http://www.w3.org/2000/svg" xmlns:xlink="http://www.w3.org/1999/xlink" width="500" zoomAndPan="magnify" viewBox="0 0 375 374.999991" height="500" preserveAspectRatio="xMidYMid meet" version="1.0"><defs><g/></defs><g fill="#3f3f3f" fill-opacity="1"><g transform="translate(248.568797, 177.023549)"><g><path d="M 20.234375 -1.9375 C 19.429688 -1.28125 18.378906 -0.726562 17.078125 -0.28125 C 15.785156 0.15625 14.484375 0.375 13.171875 0.375 C 11.203125 0.375 9.367188 -0.078125 7.671875 -0.984375 C 5.972656 -1.898438 4.609375 -3.210938 3.578125 -4.921875 C 2.546875 -6.640625 2.03125 -8.65625 2.03125 -10.96875 C 2.03125 -13.132812 2.503906 -15.078125 3.453125 -16.796875 C 4.398438 -18.515625 5.742188 -19.851562 7.484375 -20.8125 C 9.234375 -21.78125 11.273438 -22.265625 13.609375 -22.265625 C 16.097656 -22.265625 18.304688 -21.722656 20.234375 -20.640625 L 20.234375 -17.109375 C 19.578125 -18.273438 18.625 -19.203125 17.375 -19.890625 C 16.125 -20.585938 14.785156 -20.9375 13.359375 -20.9375 C 11.554688 -20.9375 9.992188 -20.507812 8.671875 -19.65625 C 7.347656 -18.8125 6.332031 -17.648438 5.625 -16.171875 C 4.925781 -14.703125 4.578125 -13.054688 4.578125 -11.234375 C 4.578125 -9.171875 4.972656 -7.375 5.765625 -5.84375 C 6.566406 -4.320312 7.644531 -3.148438 9 -2.328125 C 10.351562 -1.515625 11.867188 -1.109375 13.546875 -1.109375 C 16.242188 -1.109375 18.472656 -1.894531 20.234375 -3.46875 Z M 20.234375 -1.9375 "/></g></g></g><g fill="#3f3f3f" fill-opacity="1"><g transform="translate(18.979708, 184.900126)"><g><path d="M 10.515625 0.46875 C 9.148438 0.46875 7.835938 0.28125 6.578125 -0.09375 C 5.316406 -0.476562 4.1875 -1.007812 3.1875 -1.6875 L 3.1875 -6.453125 C 3.875 -4.691406 4.914062 -3.359375 6.3125 -2.453125 C 7.71875 -1.554688 9.179688 -1.109375 10.703125 -1.109375 C 12.234375 -1.109375 13.507812 -1.613281 14.53125 -2.625 C 15.550781 -3.632812 16.0625 -4.882812 16.0625 -6.375 C 16.0625 -7.375 15.859375 -8.226562 15.453125 -8.9375 C 15.046875 -9.644531 14.394531 -10.304688 13.5 -10.921875 C 12.613281 -11.546875 11.351562 -12.238281 9.71875 -13 C 7.4375 -14.039062 5.773438 -15.132812 4.734375 -16.28125 C 3.703125 -17.425781 3.1875 -18.8125 3.1875 -20.4375 C 3.1875 -21.820312 3.519531 -23.0625 4.1875 -24.15625 C 4.863281 -25.25 5.769531 -26.085938 6.90625 -26.671875 C 8.050781 -27.265625 9.304688 -27.5625 10.671875 -27.5625 C 11.847656 -27.5625 13 -27.394531 14.125 -27.0625 C 15.257812 -26.738281 16.3125 -26.273438 17.28125 -25.671875 L 17.28125 -21.421875 C 16.65625 -22.859375 15.703125 -23.976562 14.421875 -24.78125 C 13.148438 -25.582031 11.859375 -25.984375 10.546875 -25.984375 C 9.054688 -25.984375 7.847656 -25.5 6.921875 -24.53125 C 6.003906 -23.5625 5.546875 -22.40625 5.546875 -21.0625 C 5.546875 -20.09375 5.820312 -19.257812 6.375 -18.5625 C 6.925781 -17.863281 7.601562 -17.28125 8.40625 -16.8125 C 9.207031 -16.34375 10.328125 -15.765625 11.765625 -15.078125 C 13.242188 -14.367188 14.453125 -13.710938 15.390625 -13.109375 C 16.335938 -12.503906 17.125 -11.71875 17.75 -10.75 C 18.382812 -9.78125 18.703125 -8.597656 18.703125 -7.203125 C 18.703125 -5.628906 18.328125 -4.265625 17.578125 -3.109375 C 16.828125 -1.953125 15.828125 -1.066406 14.578125 -0.453125 C 13.335938 0.160156 11.984375 0.46875 10.515625 0.46875 Z M 10.515625 0.46875 "/></g></g></g><g fill="#3f3f3f" fill-opacity="1"><g transform="translate(45.006866, 184.900126)"><g><path d="M 5.828125 -25.515625 C 4.671875 -25.515625 3.710938 -25.289062 2.953125 -24.84375 C 2.191406 -24.394531 1.640625 -23.832031 1.296875 -23.15625 L 1.84375 -27.09375 L 20.515625 -27.09375 L 21.0625 -23.15625 C 20.71875 -23.832031 20.164062 -24.394531 19.40625 -24.84375 C 18.644531 -25.289062 17.6875 -25.515625 16.53125 -25.515625 L 12.59375 -25.515625 L 12.59375 -3.65625 C 12.59375 -2.613281 12.722656 -1.816406 12.984375 -1.265625 C 13.253906 -0.710938 13.546875 -0.34375 13.859375 -0.15625 C 14.171875 0.03125 14.328125 0.0820312 14.328125 0 L 8.078125 0 C 8.078125 0.0820312 8.234375 0.03125 8.546875 -0.15625 C 8.859375 -0.34375 9.140625 -0.703125 9.390625 -1.234375 C 9.640625 -1.773438 9.765625 -2.582031 9.765625 -3.65625 L 9.765625 -25.515625 Z M 5.828125 -25.515625 "/></g></g></g><g fill="#3f3f3f" fill-opacity="1"><g transform="translate(71.979002, 184.900126)"><g><path d="M 24.328125 -9.40625 C 24.328125 -7.332031 23.929688 -5.550781 23.140625 -4.0625 C 22.359375 -2.582031 21.25 -1.457031 19.8125 -0.6875 C 18.382812 0.0820312 16.726562 0.46875 14.84375 0.46875 C 11.71875 0.46875 9.300781 -0.394531 7.59375 -2.125 C 5.894531 -3.851562 5.046875 -6.253906 5.046875 -9.328125 L 5.046875 -23.421875 C 5.046875 -24.472656 4.921875 -25.269531 4.671875 -25.8125 C 4.421875 -26.351562 4.144531 -26.710938 3.84375 -26.890625 C 3.539062 -27.078125 3.390625 -27.144531 3.390625 -27.09375 L 9.53125 -27.09375 C 9.53125 -27.144531 9.378906 -27.078125 9.078125 -26.890625 C 8.773438 -26.710938 8.5 -26.359375 8.25 -25.828125 C 8 -25.304688 7.875 -24.546875 7.875 -23.546875 L 7.875 -9.328125 C 7.875 -6.785156 8.484375 -4.816406 9.703125 -3.421875 C 10.921875 -2.035156 12.710938 -1.34375 15.078125 -1.34375 C 17.253906 -1.34375 18.972656 -2.003906 20.234375 -3.328125 C 21.492188 -4.648438 22.125 -6.613281 22.125 -9.21875 L 22.125 -23.421875 C 22.125 -24.472656 21.992188 -25.269531 21.734375 -25.8125 C 21.472656 -26.351562 21.179688 -26.710938 20.859375 -26.890625 C 20.546875 -27.078125 20.390625 -27.144531 20.390625 -27.09375 L 26.0625 -27.09375 C 26.0625 -27.144531 25.90625 -27.078125 25.59375 -26.890625 C 25.28125 -26.710938 24.988281 -26.351562 24.71875 -25.8125 C 24.457031 -25.269531 24.328125 -24.472656 24.328125 -23.421875 Z M 24.328125 -9.40625 "/></g></g></g><g fill="#3f3f3f" fill-opacity="1"><g transform="translate(105.251009, 184.900126)"><g><path d="M 20.984375 -2.203125 C 18.515625 -0.734375 15.222656 0 11.109375 0 L 3.34375 0 C 3.34375 0.0820312 3.5 0.015625 3.8125 -0.203125 C 4.132812 -0.429688 4.421875 -0.847656 4.671875 -1.453125 C 4.921875 -2.054688 5.046875 -2.9375 5.046875 -4.09375 L 5.046875 -23.46875 C 5.046875 -24.488281 4.921875 -25.269531 4.671875 -25.8125 C 4.421875 -26.351562 4.132812 -26.710938 3.8125 -26.890625 C 3.5 -27.078125 3.34375 -27.144531 3.34375 -27.09375 L 11.0625 -27.09375 C 15.082031 -27.09375 18.257812 -26.4375 20.59375 -25.125 C 22.664062 -23.96875 24.265625 -22.40625 25.390625 -20.4375 C 26.523438 -18.46875 27.09375 -16.25 27.09375 -13.78125 C 27.09375 -11.101562 26.5625 -8.785156 25.5 -6.828125 C 24.4375 -4.867188 22.929688 -3.328125 20.984375 -2.203125 Z M 19.453125 -23.34375 C 18.296875 -24.101562 17.0625 -24.65625 15.75 -25 C 14.4375 -25.34375 12.875 -25.515625 11.0625 -25.515625 L 7.875 -25.515625 L 7.875 -1.578125 L 11.0625 -1.578125 C 13.21875 -1.578125 14.984375 -1.757812 16.359375 -2.125 C 17.734375 -2.488281 18.921875 -3.050781 19.921875 -3.8125 C 21.210938 -4.8125 22.203125 -6.117188 22.890625 -7.734375 C 23.585938 -9.347656 23.9375 -11.234375 23.9375 -13.390625 C 23.9375 -15.671875 23.535156 -17.671875 22.734375 -19.390625 C 21.929688 -21.109375 20.835938 -22.425781 19.453125 -23.34375 Z M 19.453125 -23.34375 "/></g></g></g><g fill="#3f3f3f" fill-opacity="1"><g transform="translate(139.782994, 184.900126)"><g><path d="M 3.3125 0 C 3.3125 0.0820312 3.46875 0.0234375 3.78125 -0.171875 C 4.09375 -0.367188 4.378906 -0.738281 4.640625 -1.28125 C 4.910156 -1.820312 5.046875 -2.613281 5.046875 -3.65625 L 5.046875 -23.421875 C 5.046875 -24.472656 4.921875 -25.269531 4.671875 -25.8125 C 4.421875 -26.351562 4.132812 -26.710938 3.8125 -26.890625 C 3.5 -27.078125 3.34375 -27.144531 3.34375 -27.09375 L 9.609375 -27.09375 C 9.609375 -27.144531 9.445312 -27.078125 9.125 -26.890625 C 8.8125 -26.710938 8.523438 -26.351562 8.265625 -25.8125 C 8.003906 -25.269531 7.875 -24.472656 7.875 -23.421875 L 7.875 -3.65625 C 7.875 -2.613281 8.003906 -1.820312 8.265625 -1.28125 C 8.523438 -0.738281 8.8125 -0.375 9.125 -0.1875 C 9.445312 -0.0078125 9.609375 0.0507812 9.609375 0 Z M 3.3125 0 "/></g></g></g><g fill="#3f3f3f" fill-opacity="1"><g transform="translate(157.305309, 184.900126)"><g><path d="M 2.515625 -13.234375 C 2.515625 -16.015625 3.113281 -18.492188 4.3125 -20.671875 C 5.507812 -22.847656 7.1875 -24.539062 9.34375 -25.75 C 11.507812 -26.957031 14.015625 -27.5625 16.859375 -27.5625 C 19.210938 -27.5625 21.421875 -27.039062 23.484375 -26 C 25.546875 -24.96875 27.195312 -23.414062 28.4375 -21.34375 C 29.6875 -19.269531 30.3125 -16.773438 30.3125 -13.859375 C 30.3125 -11.078125 29.710938 -8.597656 28.515625 -6.421875 C 27.328125 -4.242188 25.648438 -2.550781 23.484375 -1.34375 C 21.316406 -0.132812 18.816406 0.46875 15.984375 0.46875 C 13.617188 0.46875 11.40625 -0.046875 9.34375 -1.078125 C 7.289062 -2.117188 5.640625 -3.675781 4.390625 -5.75 C 3.140625 -7.820312 2.515625 -10.316406 2.515625 -13.234375 Z M 27.171875 -13.265625 C 27.171875 -15.660156 26.675781 -17.820312 25.6875 -19.75 C 24.707031 -21.675781 23.359375 -23.179688 21.640625 -24.265625 C 19.921875 -25.359375 17.984375 -25.90625 15.828125 -25.90625 C 13.859375 -25.90625 12.101562 -25.40625 10.5625 -24.40625 C 9.03125 -23.414062 7.832031 -22.003906 6.96875 -20.171875 C 6.101562 -18.347656 5.671875 -16.234375 5.671875 -13.828125 C 5.671875 -11.429688 6.160156 -9.269531 7.140625 -7.34375 C 8.128906 -5.414062 9.484375 -3.90625 11.203125 -2.8125 C 12.921875 -1.726562 14.859375 -1.1875 17.015625 -1.1875 C 18.984375 -1.1875 20.734375 -1.679688 22.265625 -2.671875 C 23.796875 -3.671875 24.992188 -5.082031 25.859375 -6.90625 C 26.734375 -8.726562 27.171875 -10.847656 27.171875 -13.265625 Z M 27.171875 -13.265625 "/></g></g></g><g fill="#3f3f3f" fill-opacity="1"><g transform="translate(194.750978, 184.900126)"><g/></g></g><g fill="#3f3f3f" fill-opacity="1"><g transform="translate(210.06834, 184.900126)"><g><path d="M 26.140625 0 C 26.460938 -0.0507812 26.804688 -0.332031 27.171875 -0.84375 C 27.535156 -1.351562 27.71875 -2.304688 27.71875 -3.703125 L 27.71875 -23.390625 L 17.40625 0.4375 L 6.9375 -23.34375 L 6.9375 -3.890625 C 6.9375 -2.472656 7.164062 -1.484375 7.625 -0.921875 C 8.082031 -0.359375 8.492188 -0.0507812 8.859375 0 L 3.03125 0 C 3.425781 -0.0507812 3.859375 -0.34375 4.328125 -0.875 C 4.804688 -1.414062 5.046875 -2.421875 5.046875 -3.890625 L 5.046875 -23.625 C 5.046875 -24.882812 4.820312 -25.75 4.375 -26.21875 C 3.925781 -26.695312 3.476562 -26.988281 3.03125 -27.09375 L 8.34375 -27.09375 L 18 -5.078125 L 27.484375 -27.09375 L 32.25 -27.09375 C 31.90625 -27.039062 31.535156 -26.765625 31.140625 -26.265625 C 30.753906 -25.765625 30.5625 -24.84375 30.5625 -23.5 L 30.5625 -3.546875 C 30.5625 -2.234375 30.753906 -1.328125 31.140625 -0.828125 C 31.535156 -0.328125 31.90625 -0.0507812 32.25 0 Z M 26.140625 0 "/></g></g></g><g fill="#3f3f3f" fill-opacity="1"><g transform="translate(273.769238, 184.900126)"><g><path d="M 16.5 0.4375 C 14 0.4375 11.6875 -0.0859375 9.5625 -1.140625 C 7.4375 -2.191406 5.726562 -3.765625 4.4375 -5.859375 C 3.15625 -7.960938 2.515625 -10.523438 2.515625 -13.546875 C 2.515625 -16.222656 3.125 -18.625 4.34375 -20.75 C 5.570312 -22.875 7.296875 -24.539062 9.515625 -25.75 C 11.734375 -26.957031 14.285156 -27.5625 17.171875 -27.5625 C 19.003906 -27.5625 20.660156 -27.347656 22.140625 -26.921875 C 23.628906 -26.503906 24.804688 -26.046875 25.671875 -25.546875 L 25.671875 -21.1875 C 24.859375 -22.601562 23.644531 -23.742188 22.03125 -24.609375 C 20.414062 -25.472656 18.769531 -25.90625 17.09375 -25.90625 C 14.75 -25.90625 12.71875 -25.410156 11 -24.421875 C 9.28125 -23.441406 7.960938 -22.046875 7.046875 -20.234375 C 6.128906 -18.421875 5.671875 -16.296875 5.671875 -13.859375 C 5.671875 -11.210938 6.203125 -8.941406 7.265625 -7.046875 C 8.328125 -5.160156 9.738281 -3.742188 11.5 -2.796875 C 13.257812 -1.847656 15.175781 -1.375 17.25 -1.375 C 18.1875 -1.375 19.160156 -1.484375 20.171875 -1.703125 C 21.191406 -1.929688 22.132812 -2.253906 23 -2.671875 L 23 -9.171875 C 23 -9.984375 22.863281 -10.617188 22.59375 -11.078125 C 22.332031 -11.535156 22.046875 -11.863281 21.734375 -12.0625 C 21.421875 -12.257812 21.265625 -12.332031 21.265625 -12.28125 L 27.5625 -12.28125 C 27.5625 -12.332031 27.40625 -12.28125 27.09375 -12.125 C 26.78125 -11.96875 26.488281 -11.671875 26.21875 -11.234375 C 25.957031 -10.804688 25.828125 -10.195312 25.828125 -9.40625 L 25.828125 -2.25 C 24.441406 -1.375 22.941406 -0.707031 21.328125 -0.25 C 19.710938 0.207031 18.101562 0.4375 16.5 0.4375 Z M 16.5 0.4375 "/></g></g></g><g fill="#3f3f3f" fill-opacity="1"><g transform="translate(308.61622, 184.900126)"><g><path d="M 3.34375 0 C 3.34375 0.0820312 3.5 0.0234375 3.8125 -0.171875 C 4.132812 -0.367188 4.421875 -0.765625 4.671875 -1.359375 C 4.921875 -1.953125 5.046875 -2.8125 5.046875 -3.9375 L 5.046875 -23.265625 C 5.046875 -24.347656 4.921875 -25.171875 4.671875 -25.734375 C 4.421875 -26.296875 4.132812 -26.679688 3.8125 -26.890625 C 3.5 -27.097656 3.34375 -27.164062 3.34375 -27.09375 L 17.59375 -27.09375 L 17.59375 -23.15625 C 17.125 -24.726562 15.707031 -25.515625 13.34375 -25.515625 L 7.875 -25.515625 L 7.875 -14.328125 L 14.640625 -14.328125 C 15.171875 -14.328125 15.617188 -14.410156 15.984375 -14.578125 C 16.347656 -14.753906 16.625 -14.929688 16.8125 -15.109375 C 17 -15.296875 17.101562 -15.414062 17.125 -15.46875 L 17.125 -11.65625 C 17.101562 -11.707031 17 -11.820312 16.8125 -12 C 16.625 -12.1875 16.351562 -12.359375 16 -12.515625 C 15.644531 -12.671875 15.207031 -12.75 14.6875 -12.75 L 7.875 -12.75 L 7.875 -1.578125 L 14.015625 -1.578125 C 15.203125 -1.578125 16.21875 -1.816406 17.0625 -2.296875 C 17.914062 -2.785156 18.53125 -3.410156 18.90625 -4.171875 L 18.1875 0 Z M 3.34375 0 "/></g></g></g><g fill="#3f3f3f" fill-opacity="1"><g transform="translate(334.643377, 184.900126)"><g><path d="M 3.34375 0 C 3.34375 0.0820312 3.5 0.0234375 3.8125 -0.171875 C 4.132812 -0.367188 4.421875 -0.765625 4.671875 -1.359375 C 4.921875 -1.953125 5.046875 -2.8125 5.046875 -3.9375 L 5.046875 -23.265625 C 5.046875 -24.347656 4.921875 -25.171875 4.671875 -25.734375 C 4.421875 -26.296875 4.132812 -26.679688 3.8125 -26.890625 C 3.5 -27.097656 3.34375 -27.164062 3.34375 -27.09375 L 17.59375 -27.09375 L 17.59375 -23.15625 C 17.125 -24.726562 15.707031 -25.515625 13.34375 -25.515625 L 7.875 -25.515625 L 7.875 -14.328125 L 14.640625 -14.328125 C 15.171875 -14.328125 15.617188 -14.410156 15.984375 -14.578125 C 16.347656 -14.753906 16.625 -14.929688 16.8125 -15.109375 C 17 -15.296875 17.101562 -15.414062 17.125 -15.46875 L 17.125 -11.65625 C 17.101562 -11.707031 17 -11.820312 16.8125 -12 C 16.625 -12.1875 16.351562 -12.359375 16 -12.515625 C 15.644531 -12.671875 15.207031 -12.75 14.6875 -12.75 L 7.875 -12.75 L 7.875 -1.578125 L 14.015625 -1.578125 C 15.203125 -1.578125 16.21875 -1.816406 17.0625 -2.296875 C 17.914062 -2.785156 18.53125 -3.410156 18.90625 -4.171875 L 18.1875 0 Z M 3.34375 0 "/></g></g></g><path stroke-linecap="butt" transform="matrix(0.750489, 0, 0, 0.75, 252.518659, 179.468909)" fill="none" stroke-linejoin="miter" d="M 0.00116209 1.499788 L 23.990743 1.499788 " stroke="#3f3f3f" stroke-width="3" stroke-opacity="1" stroke-miterlimit="4"/></svg>